<svg xmlns="http://www.w3.org/2000/svg" width="107.000000pt" height="107.000000pt" viewBox="0 0 1000 1000" version="1.1"><path d="" stroke="none" fill="#080404" fill-rule="evenodd"/><path d="M 240.500 54.663 C 239.400 54.905, 237.600 55.499, 236.500 55.983 C 235.400 56.468, 233.150 57.100, 231.500 57.389 C 223.589 58.773, 216.087 60.574, 215.414 61.250 C 215.003 61.663, 213.836 62, 212.820 62 C 211.804 62, 209.966 62.520, 208.736 63.156 C 204.044 65.582, 202.982 66, 201.514 66 C 200.681 66, 200 66.477, 200 67.059 C 200 67.641, 199.586 67.862, 199.081 67.550 C 198.575 67.237, 197.482 67.661, 196.652 68.491 C 195.822 69.321, 194.773 69.993, 194.321 69.984 C 193.413 69.967, 182.794 75.184, 182 76.038 C 181.725 76.333, 178.876 77.908, 175.670 79.538 C 172.463 81.167, 168.698 83.540, 167.303 84.811 C 165.907 86.082, 163.137 87.994, 161.148 89.061 C 159.158 90.127, 157.905 91, 158.364 91 C 158.823 91, 156.566 92.990, 153.349 95.423 C 146.328 100.732, 133.206 113.432, 126.996 120.927 C 124.523 123.912, 121.111 127.962, 119.414 129.927 C 115.897 133.998, 109.722 143.145, 105.526 150.500 C 103.957 153.250, 102.350 155.725, 101.955 156 C 100.965 156.690, 89 181.553, 89 182.921 C 89 183.530, 88.603 184.809, 88.117 185.764 C 85.975 189.973, 82 202.020, 82 204.301 C 82 205.144, 81.550 205.983, 81 206.167 C 79.845 206.552, 77.393 216.734, 75.501 229 C 74.780 233.675, 73.697 238.767, 73.095 240.315 C 71.653 244.023, 71.532 756.920, 72.972 763.236 C 73.507 765.581, 74.400 770.425, 74.957 774 C 77.062 787.513, 78.713 793.609, 82.034 800.127 C 83.013 802.048, 84.504 809.141, 84.178 810.324 C 84.053 810.778, 84.412 810.864, 84.975 810.515 C 85.539 810.167, 86 810.724, 86 811.754 C 86 812.783, 87.125 815.958, 88.500 818.808 C 89.875 821.658, 91 824.238, 91 824.541 C 91 825.459, 98.160 840.463, 98.854 841 C 99.429 841.445, 101.041 844.193, 104.426 850.500 C 105.017 851.600, 105.752 852.725, 106.060 853 C 106.368 853.275, 109.157 857.325, 112.258 862 C 115.359 866.675, 119.157 871.903, 120.698 873.619 C 122.239 875.334, 125.300 878.929, 127.500 881.608 C 131.915 886.984, 139.323 894.359, 146.477 900.500 C 149.040 902.700, 152.343 905.565, 153.818 906.867 C 155.293 908.168, 158.193 910.315, 160.262 911.637 C 163.855 913.932, 166.890 916.245, 169.362 918.571 C 169.988 919.161, 170.837 919.724, 171.249 919.824 C 173.696 920.415, 180 923.594, 180 924.236 C 180 924.656, 180.637 925, 181.417 925 C 182.196 925, 182.983 925.337, 183.167 925.750 C 183.569 926.656, 195.883 933, 197.239 933 C 198.196 933, 203.950 935.351, 207.236 937.084 C 208.191 937.588, 209.879 938, 210.986 938 C 212.094 938, 213 938.450, 213 939 C 213 939.550, 214.377 940, 216.059 940 C 217.741 940, 218.880 940.385, 218.590 940.855 C 218.299 941.325, 219.285 941.725, 220.781 941.743 C 225.613 941.802, 232.480 943.270, 233.214 944.400 C 234.277 946.040, 754.765 945.959, 758.099 944.318 C 760.783 942.997, 765.900 941.916, 770.655 941.666 C 772.389 941.575, 773.615 941.187, 773.379 940.804 C 772.958 940.123, 779.268 938.017, 781.764 938.006 C 782.459 938.003, 783.809 937.586, 784.764 937.080 C 785.719 936.574, 789.200 935.154, 792.500 933.924 C 795.800 932.694, 798.928 931.308, 799.450 930.844 C 799.973 930.380, 801.210 930, 802.200 930 C 803.190 930, 804 929.622, 804 929.160 C 804 928.698, 805.800 927.726, 808 927 C 810.200 926.274, 812 925.302, 812 924.840 C 812 924.378, 812.675 924, 813.500 924 C 814.325 924, 815 923.550, 815 923 C 815 922.450, 815.675 922, 816.500 922 C 817.325 922, 818 921.602, 818 921.117 C 818 920.631, 818.788 919.976, 819.750 919.661 C 821.766 919.001, 830.255 914.075, 831 913.133 C 831.933 911.952, 843.827 903, 844.463 903 C 844.811 903, 847.258 900.862, 849.901 898.250 C 852.544 895.637, 857.585 890.761, 861.103 887.414 C 867.568 881.264, 884.481 860.986, 888.275 854.837 C 890.837 850.684, 896.607 840.718, 899.299 835.792 C 900.415 833.750, 901.815 832.362, 902.413 832.702 C 903.011 833.042, 903.183 832.969, 902.796 832.540 C 902.409 832.111, 903.362 829.226, 904.914 826.130 C 906.465 823.033, 909.215 816.580, 911.025 811.788 C 912.834 806.997, 914.689 803.308, 915.146 803.590 C 915.603 803.873, 915.726 803.451, 915.420 802.652 C 915.114 801.854, 916.624 795.868, 918.777 789.350 C 923.136 776.158, 924.512 770.775, 926.157 760.500 C 927.669 751.050, 928.439 686.981, 927.117 680.500 C 926.557 677.750, 925.371 671.225, 924.483 666 C 923.007 657.319, 922.233 654.273, 920.038 648.500 C 919.619 647.400, 918.724 644.700, 918.048 642.500 C 914.535 631.073, 908.993 616.764, 904.776 608.232 C 903.616 605.884, 902.667 603.316, 902.667 602.526 C 902.667 601.735, 902.359 601.278, 901.984 601.510 C 901.609 601.742, 900.671 600.710, 899.901 599.216 C 895.376 590.442, 884.385 574.023, 876.663 564.500 C 866.865 552.417, 848.915 534.548, 842.252 530.244 C 839.915 528.735, 838.003 526.863, 838.002 526.083 C 838.001 525.304, 837.696 524.971, 837.324 525.342 C 836.952 525.714, 835.715 525.154, 834.574 524.097 C 832.031 521.742, 816.209 512, 814.927 512 C 814.417 512, 814 511.550, 814 511 C 814 510.450, 813.438 509.990, 812.750 509.978 C 812.063 509.966, 810.375 509.076, 809 508 C 807.625 506.924, 805.712 506.034, 804.750 506.022 C 803.788 506.010, 803 505.550, 803 505 C 803 504.450, 802.319 504, 801.486 504 C 800.654 504, 799.191 503.588, 798.236 503.084 C 794.914 501.332, 789.483 499.150, 786.741 498.466 C 785.223 498.088, 783.734 497.378, 783.432 496.889 C 783.129 496.400, 782.121 495.997, 781.191 495.994 C 778.279 495.985, 771.927 493.927, 772.408 493.150 C 772.660 492.741, 771.209 492.346, 769.183 492.271 C 763.133 492.047, 757 490.851, 757 489.895 C 757 489.403, 755.398 489, 753.441 489 C 751.484 489, 750.131 488.598, 750.435 488.106 C 751.024 487.153, 757.646 485.993, 762.322 486.024 C 763.992 486.035, 764.887 485.626, 764.513 485.021 C 764.136 484.411, 765.114 484, 766.941 484 C 768.623 484, 770 483.550, 770 483 C 770 482.450, 770.906 482, 772.014 482 C 773.121 482, 774.809 481.588, 775.764 481.084 C 779.050 479.351, 784.804 477, 785.761 477 C 787.122 477, 799.432 470.654, 799.835 469.744 C 800.020 469.328, 800.546 469.219, 801.005 469.503 C 801.463 469.786, 802.460 469.398, 803.218 468.639 C 804.659 467.198, 810.788 463.794, 811.240 464.184 C 811.485 464.395, 814.841 461.792, 817.362 459.436 C 817.988 458.850, 820.975 456.787, 824 454.851 C 827.025 452.915, 830.113 450.587, 830.863 449.677 C 831.613 448.767, 832.695 448.312, 833.268 448.666 C 833.840 449.019, 834.066 448.902, 833.769 448.405 C 833.472 447.907, 835.019 445.925, 837.207 444 C 844.150 437.891, 851.342 430.637, 856.500 424.541 C 859.250 421.291, 862.235 417.927, 863.134 417.066 C 864.660 415.604, 876.164 398.518, 882.160 388.807 C 884.752 384.610, 890.100 373.558, 893.439 365.500 C 894.351 363.300, 895.525 360.719, 896.048 359.764 C 896.572 358.809, 897 357.319, 897 356.455 C 897 355.590, 897.450 355.160, 898 355.500 C 898.591 355.865, 899 354.748, 899 352.770 C 899 350.929, 899.848 347.759, 900.885 345.725 C 902.569 342.422, 904.067 337.311, 907.105 324.500 C 907.627 322.300, 908.442 317.302, 908.915 313.393 C 909.389 309.484, 910.277 305.351, 910.888 304.208 C 912.664 300.890, 912.399 244.104, 910.585 239.270 C 909.807 237.197, 908.891 232.800, 908.549 229.500 C 908.207 226.200, 907.524 221.925, 907.031 220 C 906.538 218.075, 905.357 213.350, 904.405 209.500 C 903.454 205.650, 902.096 201.600, 901.388 200.500 C 900.680 199.400, 899.796 196.588, 899.423 194.250 C 899.050 191.913, 898.352 190, 897.872 190 C 897.392 190, 897 189.127, 897 188.059 C 897 186.991, 896.550 185.840, 896 185.500 C 895.450 185.160, 895 184.219, 895 183.409 C 895 181.743, 883.330 156.857, 882.162 156.034 C 881.745 155.740, 880.114 153.250, 878.538 150.500 C 876.032 146.129, 866.075 131.297, 863.768 128.500 C 863.315 127.950, 860.895 125.250, 858.390 122.500 C 855.886 119.750, 852.272 115.622, 850.360 113.327 C 847.518 109.913, 835.596 99.193, 826.644 92 C 825.617 91.175, 824.184 89.938, 823.460 89.250 C 822.735 88.563, 821.742 88, 821.252 88 C 820.761 88, 818.970 86.762, 817.272 85.250 C 815.573 83.737, 811.554 81.152, 808.342 79.505 C 805.129 77.858, 802.275 76.283, 802 76.005 C 800.887 74.880, 785.551 67.518, 784.804 67.750 C 784.362 67.887, 784 67.550, 784 67 C 784 66.450, 783.319 66, 782.486 66 C 781.654 66, 780.079 65.550, 778.986 65 C 777.894 64.450, 776.106 63.550, 775.014 63 C 773.921 62.450, 772.340 62, 771.500 62 C 770.660 62, 769.191 61.606, 768.236 61.125 C 765.954 59.975, 753.070 56.981, 750.450 56.992 C 749.323 56.996, 747.838 56.438, 747.150 55.750 C 746.157 54.757, 694.078 54.471, 494.200 54.361 C 355.765 54.285, 241.600 54.420, 240.500 54.663 M 271.277 210.511 C 264.063 212.079, 249.077 218.499, 247.250 220.805 C 246.563 221.672, 246 222.012, 246 221.560 C 246 220.785, 237.734 228.300, 230.154 235.966 C 225.589 240.583, 217.580 257.172, 215.945 265.398 C 215.224 269.029, 214.266 272, 213.817 272 C 212.692 272, 212.781 294.612, 213.915 296.764 C 214.418 297.719, 215.588 301.518, 216.514 305.206 C 218.526 313.219, 222.470 321.824, 227.443 329.053 C 232.477 336.372, 244.218 346.482, 252 350.199 C 255.575 351.906, 258.648 353.678, 258.828 354.136 C 259.008 354.593, 262.158 355.923, 265.828 357.090 C 274.221 359.761, 294.061 360.817, 303.229 359.082 C 311.670 357.484, 319 355.057, 319 353.861 C 319 353.322, 319.450 353.160, 320 353.500 C 320.550 353.840, 321 353.720, 321 353.235 C 321 352.749, 323.813 351.061, 327.250 349.484 C 336.856 345.079, 350.366 331.145, 355.838 320 C 358.134 315.325, 360.909 307.941, 362.006 303.590 C 364.704 292.886, 364.707 276.509, 362.013 265.269 C 359.987 256.822, 352.724 241.063, 349.214 237.500 C 341.372 229.541, 332 220.856, 332 221.549 C 332 222.007, 331.438 221.706, 330.750 220.879 C 328.649 218.352, 313.929 212.151, 306.185 210.531 C 297.276 208.667, 279.811 208.657, 271.277 210.511 M 484.001 210.621 C 476.863 212.180, 462.226 218.502, 460.250 220.879 C 459.563 221.706, 459 222.007, 459 221.549 C 459 220.856, 449.628 229.541, 441.786 237.500 C 438.276 241.063, 431.013 256.822, 428.987 265.269 C 426.293 276.509, 426.296 292.886, 428.994 303.590 C 430.091 307.941, 432.866 315.325, 435.162 320 C 440.634 331.145, 454.144 345.079, 463.750 349.484 C 467.188 351.061, 470 352.749, 470 353.235 C 470 353.720, 470.450 353.840, 471 353.500 C 471.550 353.160, 472 353.322, 472 353.861 C 472 355.055, 479.396 357.507, 487.500 358.999 C 491.724 359.777, 528.734 360.014, 612.500 359.802 L 731.500 359.500 738.172 357.234 C 741.842 355.988, 744.992 354.629, 745.172 354.215 C 745.352 353.802, 748.425 352.020, 752 350.255 C 758.980 346.810, 773.061 335.504, 775.197 331.629 C 775.914 330.329, 777.961 326.843, 779.747 323.883 C 781.532 320.922, 783.759 316.475, 784.695 314 C 785.631 311.525, 786.741 309.259, 787.160 308.965 C 788.936 307.719, 790.971 294.806, 790.985 284.697 C 790.999 274.885, 788.815 260.360, 787.122 259 C 786.780 258.725, 784.475 254.270, 782 249.101 C 777.544 239.792, 774.413 235.896, 762.742 225.124 C 760.134 222.717, 757.986 221.142, 757.970 221.624 C 757.953 222.106, 757.513 221.770, 756.992 220.878 C 755.686 218.644, 740.260 212.163, 732.162 210.447 C 722.269 208.350, 493.662 208.510, 484.001 210.621 M 273.075 426.076 C 266.296 427.423, 259 430.049, 259 431.139 C 259 431.678, 258.588 431.864, 258.085 431.553 C 257.582 431.242, 257.020 431.344, 256.835 431.781 C 256.651 432.217, 254.025 433.779, 251 435.251 C 244.021 438.649, 232.180 449.061, 227.413 455.990 C 222.452 463.203, 218.427 472.063, 216.281 480.500 C 215.301 484.350, 214.162 487.650, 213.750 487.833 C 212.727 488.288, 212.792 513, 213.817 513 C 214.266 513, 215.224 515.971, 215.945 519.602 C 217.580 527.828, 225.589 544.417, 230.154 549.034 C 237.734 556.700, 246 564.215, 246 563.440 C 246 562.988, 246.563 563.328, 247.250 564.195 C 249.155 566.599, 264.125 572.919, 271.734 574.532 C 281.806 576.666, 509.194 576.666, 519.266 574.532 C 526.875 572.919, 541.845 566.599, 543.750 564.195 C 544.438 563.328, 545 562.988, 545 563.440 C 545 564.215, 553.266 556.700, 560.846 549.034 C 565.411 544.417, 573.420 527.828, 575.055 519.602 C 575.776 515.971, 576.734 513, 577.183 513 C 578.208 513, 578.273 488.288, 577.250 487.833 C 576.837 487.650, 575.699 484.350, 574.719 480.500 C 572.573 472.063, 568.548 463.203, 563.587 455.990 C 558.820 449.061, 546.979 438.649, 540 435.251 C 536.975 433.779, 534.349 432.217, 534.165 431.781 C 533.980 431.344, 533.418 431.242, 532.915 431.553 C 532.412 431.864, 532 431.660, 532 431.099 C 532 430.539, 528.962 429.050, 525.250 427.790 L 518.500 425.500 398 425.348 C 331.725 425.264, 275.509 425.592, 273.075 426.076 M 261 649.068 C 251.854 651.457, 239.917 656.992, 236.462 660.447 C 235.058 661.851, 233.534 663, 233.076 663 C 231.472 663, 219.027 677.027, 216.889 681.244 C 215.702 683.585, 214.362 685.739, 213.910 686.031 C 212.199 687.139, 208.013 697.807, 206.537 704.825 C 204.362 715.165, 204.534 731.873, 206.911 741.090 C 208.810 748.453, 212.491 757.985, 213.821 758.980 C 214.203 759.266, 216.613 762.650, 219.177 766.500 C 223.788 773.426, 229.980 780.155, 233.768 782.361 C 242 787.152, 246.668 790.016, 247.643 790.874 C 248.272 791.427, 249.060 791.607, 249.393 791.273 C 249.727 790.940, 250 791.267, 250 792 C 250 792.733, 250.296 793.037, 250.658 792.675 C 251.020 792.313, 251.856 792.466, 252.516 793.013 C 255.516 795.503, 269.524 798, 280.410 797.985 C 294.069 797.967, 302.022 796.188, 312.470 790.814 C 328.349 782.647, 335.363 776.684, 342.834 765 C 345.120 761.425, 347.517 757.877, 348.161 757.115 C 348.805 756.353, 350.688 751.853, 352.346 747.115 C 357.778 731.592, 357.131 707.474, 350.894 692.975 C 349.717 690.239, 348.439 688, 348.055 688 C 347.671 688, 346.345 685.762, 345.109 683.027 C 343.006 678.373, 329.832 663, 327.947 663 C 327.476 663, 325.942 661.851, 324.538 660.447 C 320.995 656.904, 309.031 651.422, 299.590 649.016 C 288.916 646.295, 271.529 646.319, 261 649.068" stroke="none" fill="#040404" fill-rule="evenodd"/></svg>