<svg xmlns="http://www.w3.org/2000/svg" width="100" height="50" viewBox="0 0 500 250" version="1.1"><path d="" stroke="none" fill="#5084ec" fill-rule="evenodd"/><path d="M 230 59.118 C 228.625 59.663, 223.782 62.604, 219.239 65.655 C 209.446 72.229, 203.148 74.810, 193.006 76.405 C 183.928 77.832, 183.202 79.256, 188.877 84.507 C 196.575 91.629, 196.500 91.182, 196.500 130 C 196.500 148.975, 196.145 166.170, 195.712 168.211 C 195.215 170.553, 193.093 173.925, 189.962 177.351 C 184.478 183.351, 184.094 184.445, 186.934 185.965 C 189.101 187.124, 234.889 187.249, 238.995 186.106 C 242.392 185.161, 242.618 182.683, 239.665 178.773 C 230.110 166.123, 227.424 107.514, 234.593 68.097 C 235.848 61.202, 235.887 59.544, 234.811 58.862 C 233.234 57.862, 233.158 57.866, 230 59.118 M 291 59.118 C 289.625 59.663, 284.782 62.604, 280.239 65.655 C 270.446 72.229, 264.148 74.810, 254.006 76.405 C 244.928 77.832, 244.202 79.256, 249.877 84.507 C 257.575 91.629, 257.500 91.182, 257.500 130 C 257.500 148.975, 257.145 166.170, 256.712 168.211 C 256.215 170.553, 254.093 173.925, 250.962 177.351 C 245.478 183.351, 245.094 184.445, 247.934 185.965 C 250.101 187.124, 295.889 187.249, 299.995 186.106 C 303.392 185.161, 303.618 182.683, 300.665 178.773 C 291.110 166.123, 288.424 107.514, 295.593 68.097 C 296.848 61.202, 296.887 59.544, 295.811 58.862 C 294.234 57.862, 294.158 57.866, 291 59.118 M 48.798 60.872 C 31.525 66.573, 20.591 79.394, 17.772 97.250 C 16.613 104.593, 16.414 105, 13.975 105 C 10.447 105, 9 106.745, 9 111 C 9 115.327, 10.450 117, 14.200 117 L 17 117 16.994 141.250 C 16.991 155.216, 16.540 167.116, 15.931 169.310 C 15.298 171.589, 12.894 175.140, 9.949 178.149 C 5.828 182.357, 5.192 183.489, 6.047 185.089 C 7.015 186.896, 8.502 187, 33.464 187 C 64.884 187, 64.727 187.049, 60.044 178.699 C 56.230 171.898, 54.234 160.778, 53.008 139.500 C 52.469 130.150, 52.022 121.263, 52.014 119.750 L 52 117 62.393 117 C 73.682 117, 74 116.836, 74 111 C 74 105.195, 73.638 105, 62.848 105 L 52.909 105 53.514 101.250 C 56.538 82.499, 59.705 72.204, 63.670 68.239 C 68.291 63.618, 69.343 67.077, 67.468 80.732 C 66.783 85.717, 66.897 86.102, 69.897 88.903 C 77.443 95.953, 94.711 94.514, 99.013 86.476 C 103.722 77.676, 97.005 67.204, 83 61.514 C 76.154 58.733, 56.402 58.362, 48.798 60.872 M 324.230 61.115 C 314.026 66.166, 308.570 78.250, 312.379 87.364 C 317.729 100.169, 337.859 97.890, 346.086 83.548 C 351.074 74.852, 349.625 65.181, 342.701 60.960 C 338.287 58.268, 329.839 58.339, 324.230 61.115 M 351.365 94.489 C 349.699 95.189, 344.399 98.491, 339.588 101.826 C 330.523 108.110, 322.513 111.358, 313.179 112.536 C 310.071 112.928, 307.636 113.786, 307.324 114.599 C 307.020 115.391, 308.971 118.377, 311.857 121.534 C 315.077 125.057, 317.211 128.431, 317.712 130.789 C 318.145 132.830, 318.495 142.150, 318.489 151.500 C 318.477 170.791, 317.870 173.024, 310.877 179.493 C 308.636 181.567, 307.029 183.910, 307.208 184.842 C 307.496 186.338, 310.210 186.500, 335 186.500 C 366.327 186.500, 365.790 186.672, 359.629 178.602 C 354.234 171.534, 352.510 162.379, 352.640 141.500 C 352.730 127.004, 354.547 106.661, 356.624 96.891 C 357.322 93.611, 355.467 92.764, 351.365 94.489 M 106 95.428 C 97.137 97.888, 89.544 103.227, 86.415 109.200 C 84.170 113.484, 84.600 119.276, 87.354 121.863 C 91.907 126.141, 106.249 126.382, 113.219 122.298 C 117.974 119.512, 118.549 117.957, 117.082 111.841 C 115.283 104.343, 115.830 101.424, 118.966 101.776 C 126.050 102.571, 131.038 113.031, 132.590 130.346 L 133.293 138.191 127.963 134.157 C 114.348 123.852, 95.914 125.338, 85.111 137.612 C 72.294 152.173, 77.091 175.026, 94.781 183.681 C 99.580 186.029, 101.767 186.475, 108.495 186.479 C 117.515 186.484, 123.062 184.518, 129.176 179.151 L 132.750 176.013 137.142 180.405 C 143.014 186.277, 146.639 187.115, 164.707 186.777 C 178.650 186.516, 179.517 186.385, 179.788 184.492 C 179.972 183.206, 178.612 181.097, 176.003 178.624 C 169.048 172.034, 168.747 170.880, 168.001 148 C 167.418 130.144, 167.044 126.758, 165.094 121.748 C 160.070 108.841, 148.900 99.206, 134.500 95.359 C 128.321 93.709, 112.053 93.748, 106 95.428 M 402.550 100.542 C 390.836 108.541, 385.877 110.733, 376.269 112.162 C 371.771 112.831, 368.628 113.805, 368.312 114.629 C 368.023 115.382, 370.051 118.464, 372.857 121.534 C 376.077 125.057, 378.211 128.431, 378.712 130.789 C 379.145 132.830, 379.495 142.150, 379.489 151.500 C 379.477 170.791, 378.870 173.024, 371.877 179.493 C 369.636 181.567, 368.029 183.910, 368.208 184.842 C 368.496 186.338, 371.210 186.500, 396 186.500 C 421.459 186.500, 423.498 186.371, 423.813 184.735 C 423.999 183.764, 423.028 181.634, 421.654 180.001 C 415.486 172.671, 412.310 155.169, 413.424 134.650 C 414.129 121.673, 415.870 116.635, 422.102 109.537 C 425.870 105.246, 428.698 105.034, 433.074 108.715 C 439.824 114.396, 444.169 130.225, 444.130 149 C 444.098 164.395, 441.917 172.558, 435.771 180.286 C 434.040 182.463, 433.792 183.447, 434.636 184.786 C 435.602 186.319, 438.403 186.530, 461.108 186.781 C 475.074 186.936, 487.512 186.815, 488.750 186.512 C 492.139 185.683, 491.489 182.876, 486.884 178.453 C 480.400 172.227, 479.791 169.916, 478.995 148.500 C 478.389 132.214, 477.961 128.643, 476.002 123.500 C 469.136 105.479, 455.834 95.112, 438.399 94.192 C 429.206 93.707, 425.222 95.038, 419.381 100.548 L 415.961 103.773 416.609 98.886 C 417.239 94.140, 417.184 94, 414.695 94 C 413.182 94, 408.206 96.680, 402.550 100.542 M 115.407 142.572 C 105.445 147.487, 105.642 166.755, 115.702 171.529 C 122.223 174.623, 128.467 170.406, 130.935 161.241 C 132.947 153.770, 129.367 144.887, 123.328 142.364 C 119.316 140.687, 119.221 140.690, 115.407 142.572" stroke="none" fill="#4c84ec" fill-rule="evenodd"/></svg>