<svg xmlns="http://www.w3.org/2000/svg" width="55" height="55" viewBox="0 0 1000 1000" version="1.1"><path d="" stroke="none" fill="#4084f4" fill-rule="evenodd"/><path d="M 243 54.985 C 241.625 55.440, 236.450 56.736, 231.500 57.865 C 189.154 67.523, 151.233 91.746, 122.487 127.500 C 100.400 154.971, 84.957 187.797, 77.559 223 C 76.115 229.875, 74.406 237.525, 73.763 240 C 72.066 246.534, 71.373 749.499, 73.047 759.500 C 79.130 795.824, 88.081 821.367, 104.249 848.532 C 113.526 864.119, 123.396 876.624, 137.393 890.523 C 166.479 919.406, 195.844 935.292, 237 944.407 C 243.901 945.935, 264.841 946.045, 499 945.784 C 688.457 945.573, 754.139 945.205, 756 944.348 C 757.375 943.714, 761.671 942.487, 765.548 941.621 C 805.158 932.771, 847.084 905.604, 875.307 870.500 C 888.722 853.814, 902.657 830.863, 909.005 815 C 910.216 811.975, 911.602 808.600, 912.085 807.500 C 915.643 799.398, 922.938 773.373, 924.978 761.500 C 925.639 757.650, 926.590 752.613, 927.090 750.307 C 928.398 744.282, 928.234 689.892, 926.886 682.560 C 925.009 672.346, 921.881 657.663, 920.909 654.500 C 920.402 652.850, 918.832 647.675, 917.420 643 C 905.523 603.624, 881.769 565.858, 852.528 539.829 C 829.061 518.940, 805.841 505.349, 779.197 496.908 C 763.514 491.940, 762.032 491.528, 754.185 489.960 C 750.076 489.140, 748.329 488.407, 749.185 487.865 C 749.908 487.406, 751.470 487.024, 752.655 487.015 C 755.979 486.992, 780.932 478.574, 788.629 474.880 C 833.935 453.133, 867.713 418.824, 889.691 372.228 C 898.884 352.739, 904.589 333.502, 910.450 302.230 C 912.493 291.329, 912.603 254.070, 910.622 243.708 C 909.865 239.744, 908.689 233.350, 908.010 229.500 C 902.490 198.209, 887.981 163.624, 869.623 138 C 863.057 128.835, 861.642 127.101, 852.500 117.014 C 825.072 86.751, 789.754 66.031, 751 57.466 C 746.875 56.555, 742.195 55.402, 740.601 54.904 C 736.937 53.761, 246.457 53.841, 243 54.985 M 269.325 210.991 C 257.701 214.038, 246.404 220.033, 238.328 227.441 C 229.244 235.774, 225.218 241.341, 220.568 252 C 218.528 256.675, 216.449 261.400, 215.948 262.500 C 212 271.159, 211.982 297.572, 215.917 306.500 C 220.816 317.614, 224.541 325.021, 226.565 327.674 C 227.904 329.430, 229 331.333, 229 331.904 C 229 333.679, 244.125 345.977, 252 350.606 C 264.433 357.913, 270.944 359.500, 288.500 359.500 C 306.451 359.500, 312.569 358.110, 324.774 351.260 C 350.805 336.648, 363.975 314.032, 363.993 283.910 C 364.006 262.757, 357.447 245.808, 343.804 231.736 C 339.512 227.309, 336 223.938, 336 224.245 C 336 224.552, 334.707 223.609, 333.127 222.151 C 329.325 218.643, 314.536 212.222, 306.177 210.450 C 296.518 208.403, 278.171 208.672, 269.325 210.991 M 484.365 210.493 C 476.406 212.224, 461.542 218.765, 457.873 222.151 C 456.293 223.609, 455 224.552, 455 224.245 C 455 223.938, 451.488 227.309, 447.196 231.736 C 441.239 237.881, 438.412 241.808, 435.253 248.332 C 428.954 261.337, 427.843 265.891, 427.283 281 C 426.860 292.411, 427.105 295.851, 428.869 303.234 C 433.782 323.805, 446.546 340.213, 466.226 351.260 C 481.987 360.107, 471.479 359.500, 609 359.500 L 730.500 359.500 739.319 356.609 C 744.170 355.020, 748.782 353.075, 749.569 352.288 C 750.356 351.501, 751.007 351.227, 751.015 351.679 C 751.024 352.130, 751.361 352.046, 751.765 351.492 C 752.169 350.938, 755.669 348.384, 759.542 345.818 C 768.461 339.908, 774.593 333.358, 779.510 324.487 C 781.640 320.644, 783.714 317.268, 784.119 316.985 C 784.524 316.702, 786.091 312.877, 787.600 308.485 C 791.499 297.137, 792.154 278.482, 789.102 265.670 C 785.943 252.406, 779.611 241.616, 768.384 230.365 C 757.999 219.958, 748.461 214.491, 734.590 210.994 C 726.900 209.055, 723.394 209.002, 608.590 209.079 C 514.110 209.143, 489.273 209.426, 484.365 210.493 M 271 426.548 C 257.396 429.454, 235.413 443.825, 228.157 454.556 C 225.382 458.660, 219.882 469.414, 215.910 478.500 C 211.981 487.489, 212.003 513.849, 215.948 522.500 C 216.449 523.600, 218.528 528.325, 220.568 533 C 225.218 543.659, 229.244 549.226, 238.328 557.559 C 245.854 564.463, 256.227 570.186, 267.500 573.654 C 273.194 575.406, 279.725 575.500, 395.500 575.500 C 511.275 575.500, 517.806 575.406, 523.500 573.654 C 534.773 570.186, 545.146 564.463, 552.672 557.559 C 561.756 549.226, 565.782 543.659, 570.432 533 C 572.472 528.325, 574.551 523.600, 575.052 522.500 C 578.997 513.849, 579.019 487.489, 575.090 478.500 C 571.118 469.414, 565.618 458.660, 562.843 454.556 C 555.438 443.605, 533.514 429.409, 519.500 426.492 C 509.349 424.379, 280.913 424.430, 271 426.548 M 260.787 649.041 C 252.351 651.116, 241.106 656.357, 236.154 660.524 C 234.419 661.984, 233 662.952, 233 662.675 C 233 661.891, 221.745 674.026, 218.193 678.640 C 213.496 684.742, 208.260 696.487, 206.525 704.815 C 205.686 708.839, 205 716.966, 205 722.875 C 205 740.649, 209.723 755.279, 219.618 768.148 C 224.610 774.642, 235.706 785, 237.670 785 C 238.402 785, 239 785.360, 239 785.799 C 239 786.239, 240.575 787.168, 242.500 787.864 C 244.425 788.560, 246 789.482, 246 789.913 C 246 791.149, 252.790 793.833, 261.410 796.006 C 272.235 798.735, 288.796 798.731, 299.590 795.996 C 309.085 793.591, 313 792.080, 313 790.820 C 313 790.304, 313.450 790.160, 314 790.500 C 314.550 790.840, 315 790.671, 315 790.124 C 315 789.577, 316.575 788.560, 318.500 787.864 C 320.425 787.168, 322 786.239, 322 785.799 C 322 785.360, 322.711 785, 323.581 785 C 326.150 785, 342.184 768.044, 346.276 761 C 352.602 750.108, 355.219 740.431, 355.758 725.939 C 356.103 716.663, 355.796 711.303, 354.586 705.439 C 349.109 678.906, 326.715 655.771, 300.060 649.109 C 288.998 646.345, 271.874 646.315, 260.787 649.041" stroke="none" fill="#3c84f4" fill-rule="evenodd"/></svg>