<svg xmlns="http://www.w3.org/2000/svg" width="65" height="65" viewBox="0 0 500 500" version="1.1"><path d="" stroke="none" fill="#5084ec" fill-rule="evenodd"/><path d="M 119 114.643 C 116.525 115.493, 107.425 120.884, 98.777 126.622 C 72.347 144.159, 56.642 150.528, 37 151.675 C 25.892 152.324, 23 153.653, 23 158.108 C 23 160.418, 23.922 161.949, 26.750 164.335 C 40.972 176.336, 45.348 183.928, 47.047 199.549 C 47.767 206.166, 48.017 232.297, 47.778 276.049 C 47.429 339.938, 47.336 342.735, 45.359 348.599 C 42.617 356.736, 38.454 362.556, 30.010 370.061 C 24.061 375.348, 23 376.780, 23 379.523 C 23 381.301, 23.631 383.279, 24.403 383.919 C 25.451 384.789, 44.769 385.002, 100.653 384.762 L 175.500 384.441 183.938 382.102 C 215.872 373.249, 240.453 353.968, 253.456 327.573 C 260.899 312.465, 262.499 305.199, 262.499 286.500 C 262.499 268.639, 261.041 261.452, 254.588 247.483 C 242.271 220.826, 216.165 199.603, 185.477 191.301 C 176.304 188.819, 173.968 188.600, 156.500 188.579 C 137.999 188.556, 135.249 188.876, 122.468 192.537 C 120.618 193.067, 120.465 192.733, 120.760 188.810 C 121.692 176.406, 125.319 146.015, 127.123 135.500 C 130.311 116.911, 130.475 114.914, 128.892 113.912 C 126.917 112.661, 124.174 112.864, 119 114.643 M 372 115.965 C 340.809 122.659, 317.856 139.627, 304.990 165.500 C 298.950 177.646, 296.055 188.313, 295.288 201.250 L 294.709 211 288.789 211 C 281.802 211, 279.669 211.944, 278.149 215.712 C 275.487 222.308, 276.271 230.425, 279.923 234.077 C 282.512 236.666, 283.540 237, 288.923 237 L 295 237 294.992 283.250 C 294.987 308.688, 294.523 333.550, 293.960 338.500 C 292.450 351.782, 289.025 358.410, 278.448 368.521 C 271.330 375.326, 270 377.096, 270 379.764 C 270 381.870, 270.647 383.276, 271.934 383.965 C 273.201 384.643, 293.157 385, 329.799 385 C 384.869 385, 385.771 384.968, 388.365 382.927 C 392.543 379.641, 391.846 376.661, 384.835 367.849 C 375.949 356.680, 369.040 306.867, 369.010 253.750 L 369 237 389.444 237 C 409.460 237, 409.946 236.951, 412.620 234.651 C 414.908 232.682, 415.422 231.311, 415.793 226.187 C 416.321 218.886, 415.626 215.626, 412.975 212.975 C 411.139 211.139, 409.580 211, 390.871 211 L 370.742 211 371.443 203.750 C 374.130 175.966, 383.215 144.934, 391.537 135.114 C 395.172 130.824, 400.281 128.545, 403 130 C 408.017 132.685, 407.992 138.932, 402.906 153.609 C 400.646 160.132, 400.025 163.332, 400.512 165.957 C 403.579 182.512, 430.442 191.325, 453.993 183.502 C 460.523 181.333, 468.362 174.236, 470.547 168.516 C 472.783 162.662, 472.188 153.064, 469.210 146.924 C 462.049 132.161, 444.265 120.945, 420.265 116.054 C 406.966 113.344, 384.407 113.302, 372 115.965 M 152.383 204.084 C 142.735 206.882, 133.295 225.780, 128.394 252.109 C 125.974 265.110, 125.429 297.793, 127.386 312.611 C 131.623 344.706, 142.150 366.980, 154.222 369.394 C 165.469 371.644, 177.339 353.779, 182.975 326.121 C 192.925 277.296, 181.821 214.086, 161.688 204.945 C 157.028 202.830, 156.787 202.807, 152.383 204.084" stroke="none" fill="#4c84ec" fill-rule="evenodd"/></svg>