<svg xmlns="http://www.w3.org/2000/svg" width="65" height="65" viewBox="0 0 500 500" version="1.1"><path d="" stroke="none" fill="#5084ec" fill-rule="evenodd"/><path d="M 14.200 117.200 C 11.307 120.093, 12.883 123.315, 20.965 131.025 C 30.873 140.479, 34.588 147.655, 36.020 160.107 C 37.283 171.097, 37.283 321.903, 36.020 332.893 C 34.440 346.636, 29.654 354.775, 16.750 365.665 C 13.946 368.031, 13 369.590, 13 371.843 C 13 378.496, 7.085 378.107, 102.858 377.748 C 188.842 377.425, 189.565 377.405, 198 375.185 C 214.915 370.734, 232.192 360.034, 241.551 348.215 C 251.051 336.218, 256 322.443, 256 308 C 256 291.426, 250.459 277.906, 238.423 265.112 C 227.904 253.929, 215.090 246.283, 199.804 242.066 L 195.108 240.770 201.023 236.323 C 220.376 221.776, 231.004 198.640, 228.059 177.469 C 224.205 149.758, 200.894 125.774, 170.183 117.919 C 163.119 116.112, 158.371 116, 89.040 116 C 33.098 116, 15.112 116.288, 14.200 117.200 M 267.235 117.165 C 264.305 120.095, 265.856 123.290, 273.965 131.025 C 284.089 140.684, 287.614 147.637, 289.090 160.854 C 289.726 166.550, 289.978 201.101, 289.765 253.227 C 289.451 330.179, 289.289 336.918, 287.624 342 C 284.995 350.030, 280.718 356.157, 272.911 363.078 C 266.949 368.365, 266 369.667, 266 372.568 C 266 374.868, 266.611 376.257, 267.934 376.965 C 270.505 378.341, 375.842 378.391, 379.453 377.018 C 382.750 375.764, 384.421 371.675, 382.858 368.685 C 382.230 367.483, 379.958 364.574, 377.810 362.220 C 368.536 352.059, 364.624 333.529, 362.984 292 C 362.474 279.075, 362.044 266.518, 362.028 264.095 L 362 259.689 376.750 260.309 C 400.264 261.297, 404.377 263.259, 413.793 277.986 C 420.870 289.055, 423.673 292, 427.130 292 C 432.853 292, 433 291.021, 433 253 C 433 214.979, 432.853 214, 427.130 214 C 423.682 214, 420.896 216.920, 413.772 228 C 407.413 237.889, 406.132 239.157, 399.463 242.156 C 395.156 244.093, 392.351 244.444, 378.250 244.812 L 362 245.235 362.013 232.367 C 362.034 211.569, 363.853 176.746, 365.496 165.683 C 367.404 152.834, 370.029 143.568, 373.685 136.779 L 376.527 131.500 384.514 131.603 C 398.774 131.787, 407.421 137.760, 417.162 154.156 C 430.150 176.018, 453.174 185.510, 471.485 176.551 C 481.403 171.699, 486.395 162.633, 486.382 149.500 C 486.367 134.379, 476.876 124.817, 455.826 118.716 C 448.641 116.634, 446.767 116.587, 358.485 116.262 C 288.028 116.002, 268.202 116.198, 267.235 117.165 M 114.665 138.659 C 111.925 172.381, 110.839 189.967, 110.105 212.500 C 109.640 226.800, 109.381 238.643, 109.530 238.817 C 109.679 238.991, 113.333 238.643, 117.650 238.043 C 142.988 234.522, 160.119 213.389, 160.242 185.500 C 160.270 179.384, 159.659 173.082, 158.671 169.275 C 153.421 149.059, 138.203 134.252, 119.842 131.499 L 115.302 130.818 114.665 138.659 M 109.470 260.750 C 109.737 264.462, 110.204 276.230, 110.509 286.901 C 111.057 306.076, 113.131 336.512, 115.013 353 C 115.547 357.675, 115.987 361.905, 115.992 362.400 C 116.005 363.903, 135.295 362.153, 142.137 360.029 C 165.268 352.846, 182 331.008, 182 308 C 182 283.754, 163.969 261.979, 138.540 255.515 C 134.878 254.584, 128.032 254, 120.783 254 L 108.986 254 109.470 260.750" stroke="none" fill="#4c84ec" fill-rule="evenodd"/></svg>